<svg width="91" height="32" viewBox="0 0 91 32" fill="none" xmlns="http://www.w3.org/2000/svg">
<path d="M39.3337 16.3613C39.3337 20.27 36.2084 23.1503 32.373 23.1503C28.5376 23.1503 25.4124 20.27 25.4124 16.3613C25.4124 12.425 28.5376 9.57227 32.373 9.57227C36.2084 9.57227 39.3337 12.425 39.3337 16.3613ZM36.2866 16.3613C36.2866 13.9187 34.4753 12.2475 32.373 12.2475C30.2707 12.2475 28.4594 13.9187 28.4594 16.3613C28.4594 18.7794 30.2707 20.4751 32.373 20.4751C34.4753 20.4751 36.2866 18.7763 36.2866 16.3613Z" fill="#EA4335"/>
<path d="M54.3493 16.3613C54.3493 20.27 51.224 23.1503 47.3886 23.1503C43.5532 23.1503 40.428 20.27 40.428 16.3613C40.428 12.4281 43.5532 9.57227 47.3886 9.57227C51.224 9.57227 54.3493 12.425 54.3493 16.3613ZM51.3023 16.3613C51.3023 13.9187 49.4909 12.2475 47.3886 12.2475C45.2864 12.2475 43.475 13.9187 43.475 16.3613C43.475 18.7794 45.2864 20.4751 47.3886 20.4751C49.4909 20.4751 51.3023 18.7763 51.3023 16.3613Z" fill="#FBBC05"/>
<path d="M68.7397 9.98242V22.1708C68.7397 27.1845 65.7176 29.2322 62.145 29.2322C58.782 29.2322 56.7579 27.0315 55.9946 25.2317L58.6475 24.1512C59.1199 25.2562 60.2774 26.5601 62.1419 26.5601C64.4287 26.5601 65.8459 25.1796 65.8459 22.581V21.6045H65.7395C65.0576 22.4279 63.7436 23.1472 62.0856 23.1472C58.6162 23.1472 55.4377 20.1904 55.4377 16.3858C55.4377 12.5536 58.6162 9.57227 62.0856 9.57227C63.7405 9.57227 65.0544 10.2916 65.7395 11.0905H65.8459V9.98548H68.7397V9.98242ZM66.0618 16.3858C66.0618 13.9952 64.4319 12.2475 62.3578 12.2475C60.2555 12.2475 58.4942 13.9952 58.4942 16.3858C58.4942 18.7518 60.2555 20.4751 62.3578 20.4751C64.4319 20.4751 66.0618 18.7518 66.0618 16.3858Z" fill="#4285F4"/>
<path d="M73.5113 2.83789V22.7335H70.5393V2.83789H73.5113Z" fill="#34A853"/>
<path d="M85.093 18.5958L87.4581 20.1385C86.6948 21.2435 84.8553 23.1474 81.6768 23.1474C77.7351 23.1474 74.7913 20.1661 74.7913 16.3583C74.7913 12.3211 77.7601 9.56934 81.3358 9.56934C84.9366 9.56934 86.6979 12.3731 87.2735 13.8882L87.5895 14.6596L78.3138 18.4183C79.024 19.7804 80.1283 20.4752 81.6768 20.4752C83.2285 20.4752 84.3047 19.7284 85.093 18.5958ZM77.8133 16.1533L84.0138 13.6342C83.6728 12.7863 82.6466 12.1956 81.4391 12.1956C79.8905 12.1956 77.7351 13.5332 77.8133 16.1533Z" fill="#EA4335"/>
<path d="M14.1621 14.5957V11.7154H24.0822C24.1792 12.2174 24.2292 12.8112 24.2292 13.4539C24.2292 15.6149 23.6255 18.2871 21.6796 20.1909C19.7869 22.1193 17.3687 23.1477 14.1652 23.1477C8.22753 23.1477 3.23462 18.4156 3.23462 12.6061C3.23462 6.79656 8.22753 2.06445 14.1652 2.06445C17.45 2.06445 19.7901 3.32553 21.5482 4.96922L19.471 7.00164C18.2102 5.84463 16.5021 4.94473 14.1621 4.94473C9.82614 4.94473 6.43496 8.36372 6.43496 12.6061C6.43496 16.8485 9.82614 20.2674 14.1621 20.2674C16.9745 20.2674 18.5762 19.1625 19.6024 18.1585C20.4345 17.3443 20.982 16.1812 21.1978 14.5926L14.1621 14.5957Z" fill="#4285F4"/>
</svg>
